<?xml version="1.0" encoding="UTF-8" standalone="no"?>
<!-- Created with Inkscape (http://www.inkscape.org/) -->

<svg
   width="110.73866mm"
   height="14.617887mm"
   viewBox="0 0 110.73866 14.617887"
   version="1.1"
   id="svg1"
   inkscape:version="1.4 (e7c3feb1, 2024-10-09)"
   sodipodi:docname="title.svg"
   xmlns:inkscape="http://www.inkscape.org/namespaces/inkscape"
   xmlns:sodipodi="http://sodipodi.sourceforge.net/DTD/sodipodi-0.dtd"
   xmlns="http://www.w3.org/2000/svg"
   xmlns:svg="http://www.w3.org/2000/svg">
  <sodipodi:namedview
     id="namedview1"
     pagecolor="#ffffff"
     bordercolor="#000000"
     borderopacity="0.25"
     inkscape:showpageshadow="2"
     inkscape:pageopacity="0.0"
     inkscape:pagecheckerboard="false"
     inkscape:deskcolor="#d1d1d1"
     inkscape:document-units="mm"
     showborder="true"
     labelstyle="default"
     inkscape:clip-to-page="false"
     inkscape:zoom="0.45695434"
     inkscape:cx="172.88379"
     inkscape:cy="-1.0942012"
     inkscape:window-width="1472"
     inkscape:window-height="820"
     inkscape:window-x="0"
     inkscape:window-y="37"
     inkscape:window-maximized="1"
     inkscape:current-layer="layer1" />
  <defs
     id="defs1" />
  <g
     inkscape:label="Layer 1"
     inkscape:groupmode="layer"
     id="layer1"
     transform="translate(-57.540175,-145.1822)">
    <g
       id="g2"
       transform="matrix(0.26458333,0,0,0.26458333,3.8982064,90.47786)"
       style="fill:#000000">
      <path
         d="m 202.7413,262.00528 v -51.24871 h 34.15886 v 8.53971 h -25.61914 v 8.55014 h 25.61914 v 8.53972 h -25.61914 v 17.07943 h 25.61914 v 8.53971 z m 68.32815,-8.53971 v -34.16929 h 8.53971 v 34.16929 z m -25.61915,8.53971 v -51.24871 h 25.61915 v 8.53971 h -17.07943 v 34.16929 h 17.07943 v 8.53971 z m 42.709,0 v -51.24871 h 34.15886 v 8.53971 h -25.61914 v 8.55014 h 25.61914 v 8.53972 h -25.61914 v 25.61914 z m 42.709,0 v -51.24871 h 8.53972 v 42.709 h 25.61914 v 8.53971 z m 51.24872,0 v -8.53971 h 17.07942 v 8.53971 z m -8.53972,-8.53971 v -34.16929 h 8.53972 v 34.16929 z m 25.61914,0 v -34.16929 h 8.53972 v 34.16929 z m -17.07942,-34.16929 v -8.53971 h 17.07942 v 8.53971 z m 59.78842,42.709 v -25.61914 h 8.53972 v 25.61914 z m 0,-34.15886 v -8.55014 h 8.53972 v 8.55014 z m -25.61914,34.15886 v -51.24871 h 25.61914 v 8.53971 h -17.07942 v 8.55014 h 17.07942 v 8.53972 h -17.07942 v 25.61914 z m 42.709,0 v -51.24871 h 34.15886 v 8.53971 h -25.61915 v 8.55014 h 25.61915 v 8.53972 h -25.61915 v 17.07943 h 25.61915 v 8.53971 z m 42.70902,0 v -8.53971 h 25.61914 v -17.07943 h -25.61914 v -25.62957 h 34.15885 v 8.53971 h -25.61914 v 8.55014 h 25.61914 v 34.15886 z m 42.70898,0 v -51.24871 h 8.53971 v 17.08985 h 17.07943 v -17.08985 h 8.53972 v 51.24871 h -8.53972 v -25.61914 h -17.07943 v 25.61914 z m 42.70898,0 v -17.07943 h 8.53972 v 8.53972 h 25.61914 v 8.53971 z m 8.53972,-17.07943 v -8.53971 h 8.53971 v 8.53971 z m 8.53971,-8.53971 v -8.53972 h 8.53972 v 8.53972 z m 8.53972,-8.53972 v -8.55014 h -25.61915 v -8.53971 h 34.15886 v 17.08985 z"
         id="text1-7-3"
         style="font-size:42.709px;font-family:Pixeled;-inkscape-font-specification:Pixeled;fill:#b88f69;stroke-width:8.58094;stroke-opacity:0.142551"
         aria-label="EDFLORESHZ" />
      <path
         d="m 202.7413,258.00528 v -51.24871 h 34.15886 v 8.53971 h -25.61914 v 8.55014 h 25.61914 v 8.53972 h -25.61914 v 17.07943 h 25.61914 v 8.53971 z m 68.32815,-8.53971 v -34.16929 h 8.53971 v 34.16929 z m -25.61915,8.53971 v -51.24871 h 25.61915 v 8.53971 h -17.07943 v 34.16929 h 17.07943 v 8.53971 z m 42.709,0 v -51.24871 h 34.15886 v 8.53971 h -25.61914 v 8.55014 h 25.61914 v 8.53972 h -25.61914 v 25.61914 z m 42.709,0 v -51.24871 h 8.53972 v 42.709 h 25.61914 v 8.53971 z m 51.24872,0 v -8.53971 h 17.07942 v 8.53971 z m -8.53972,-8.53971 v -34.16929 h 8.53972 v 34.16929 z m 25.61914,0 v -34.16929 h 8.53972 v 34.16929 z m -17.07942,-34.16929 v -8.53971 h 17.07942 v 8.53971 z m 59.78842,42.709 v -25.61914 h 8.53972 v 25.61914 z m 0,-34.15886 v -8.55014 h 8.53972 v 8.55014 z m -25.61914,34.15886 v -51.24871 h 25.61914 v 8.53971 h -17.07942 v 8.55014 h 17.07942 v 8.53972 h -17.07942 v 25.61914 z m 42.709,0 v -51.24871 h 34.15886 v 8.53971 h -25.61915 v 8.55014 h 25.61915 v 8.53972 h -25.61915 v 17.07943 h 25.61915 v 8.53971 z m 42.70902,0 v -8.53971 h 25.61914 v -17.07943 h -25.61914 v -25.62957 h 34.15885 v 8.53971 h -25.61914 v 8.55014 h 25.61914 v 34.15886 z m 42.70898,0 v -51.24871 h 8.53971 v 17.08985 h 17.07943 v -17.08985 h 8.53972 v 51.24871 h -8.53972 v -25.61914 h -17.07943 v 25.61914 z m 42.70898,0 v -17.07943 h 8.53972 v 8.53972 h 25.61914 v 8.53971 z m 8.53972,-17.07943 v -8.53971 h 8.53971 v 8.53971 z m 8.53971,-8.53971 v -8.53972 h 8.53972 v 8.53972 z m 8.53972,-8.53972 v -8.55014 h -25.61915 v -8.53971 h 34.15886 v 17.08985 z"
         id="text1-3-6"
         style="font-size:42.709px;font-family:Pixeled;-inkscape-font-specification:Pixeled;stroke-width:8.58094;stroke-opacity:0.142551"
         aria-label="EDFLORESHZ" />
    </g>
  </g>
</svg>
